<svg width="102" height="40" viewBox="0 0 102 40" fill="none" xmlns="http://www.w3.org/2000/svg">
<path d="M6.81321 0.454545L9.79616 10.7102H9.9098L12.8928 0.454545H17.353L12.5518 15H7.15412L2.35298 0.454545H6.81321ZM19.7539 15V0.454545H30.2369V3.63636H23.7028V6.13636H29.6971V9.31818H23.7028V11.8182H30.2085V15H19.7539ZM45.7805 0.454545V15H42.4851L37.2294 7.35795H37.1442V15H33.1953V0.454545H36.5476L41.718 8.06818H41.8317V0.454545H45.7805ZM54.245 15H48.6484V0.454545H54.1882C55.6844 0.454545 56.977 0.745738 58.0661 1.32812C59.1598 1.90578 60.0026 2.73911 60.5945 3.82812C61.1911 4.91241 61.4893 6.21212 61.4893 7.72727C61.4893 9.24242 61.1934 10.5445 60.6016 11.6335C60.0097 12.7178 59.1716 13.5511 58.0874 14.1335C57.0031 14.7112 55.7223 15 54.245 15ZM52.5973 11.6477H54.103C54.8227 11.6477 55.4358 11.5317 55.9425 11.2997C56.4538 11.0677 56.8421 10.6676 57.1072 10.0994C57.3771 9.53125 57.5121 8.74053 57.5121 7.72727C57.5121 6.71402 57.3748 5.9233 57.1001 5.35511C56.8303 4.78693 56.4325 4.38684 55.907 4.15483C55.3861 3.92282 54.7469 3.80682 53.9893 3.80682H52.5973V11.6477ZM68.2653 0.454545V15H64.3164V0.454545H68.2653ZM83.7219 0.454545V15H80.4265L75.1708 7.35795H75.0856V15H71.1367V0.454545H74.489L79.6594 8.06818H79.7731V0.454545H83.7219ZM96.0359 5.25568C95.9743 5.00473 95.8772 4.78456 95.7447 4.59517C95.6121 4.40104 95.4464 4.23769 95.2475 4.10511C95.0534 3.9678 94.8261 3.866 94.5657 3.79972C94.31 3.72869 94.0283 3.69318 93.7205 3.69318C93.0576 3.69318 92.4918 3.8518 92.0231 4.16903C91.5591 4.48627 91.204 4.94318 90.9577 5.53977C90.7163 6.13636 90.5955 6.85606 90.5955 7.69886C90.5955 8.55114 90.7115 9.2803 90.9435 9.88636C91.1755 10.4924 91.5212 10.9564 91.9805 11.2784C92.4397 11.6004 93.0103 11.7614 93.6921 11.7614C94.2934 11.7614 94.793 11.6738 95.1907 11.4986C95.5932 11.3234 95.8938 11.0748 96.0927 10.7528C96.2915 10.4309 96.391 10.0521 96.391 9.61648L97.0728 9.6875H93.7489V6.875H100.198V8.89205C100.198 10.2178 99.9161 11.3518 99.3526 12.294C98.7939 13.2315 98.0221 13.9512 97.0373 14.4531C96.0572 14.9503 94.9326 15.1989 93.6637 15.1989C92.248 15.1989 91.0051 14.8982 89.935 14.2969C88.8649 13.6955 88.0292 12.8385 87.4279 11.7259C86.8313 10.6132 86.533 9.28977 86.533 7.75568C86.533 6.55303 86.7153 5.48769 87.0799 4.55966C87.4492 3.63163 87.9606 2.84801 88.614 2.20881C89.2674 1.56487 90.0226 1.07955 90.8796 0.75284C91.7366 0.421401 92.6552 0.255681 93.6353 0.255681C94.497 0.255681 95.2972 0.378788 96.0359 0.625C96.7792 0.866477 97.435 1.21212 98.0032 1.66193C98.5761 2.10701 99.0378 2.63494 99.3881 3.24574C99.7385 3.85653 99.9516 4.52651 100.027 5.25568H96.0359ZM0.960938 24.4545H5.87571L9.25639 32.6932H9.42685L12.8075 24.4545H17.7223V39H13.8587V30.5909H13.745L10.5064 38.8864H8.17685L4.93821 30.5341H4.82457V39H0.960938V24.4545ZM24.3722 39H20.1108L24.9119 24.4545H30.3097L35.1108 39H30.8494L27.6676 28.4602H27.554L24.3722 39ZM23.5767 33.2614H31.5881V36.2159H23.5767V33.2614ZM50.4077 29.9091H46.402C46.3736 29.5777 46.2978 29.277 46.1747 29.0071C46.0563 28.7372 45.8906 28.5052 45.6776 28.3111C45.4692 28.1122 45.2159 27.9607 44.9176 27.8565C44.6193 27.7476 44.2808 27.6932 43.902 27.6932C43.2391 27.6932 42.678 27.8542 42.2188 28.1761C41.7642 28.4981 41.4186 28.9598 41.1818 29.5611C40.9498 30.1624 40.8338 30.8845 40.8338 31.7273C40.8338 32.6174 40.9522 33.3632 41.1889 33.9645C41.4304 34.5611 41.7784 35.0109 42.233 35.3139C42.6875 35.6122 43.2344 35.7614 43.8736 35.7614C44.2382 35.7614 44.5649 35.7164 44.8537 35.6264C45.1425 35.5317 45.3935 35.3968 45.6065 35.2216C45.8196 35.0464 45.9924 34.8357 46.125 34.5895C46.2623 34.3385 46.3546 34.0568 46.402 33.7443L50.4077 33.7727C50.3603 34.3883 50.1875 35.0156 49.8892 35.6548C49.5909 36.2893 49.1671 36.8764 48.6179 37.4162C48.0734 37.9512 47.3987 38.3821 46.5938 38.7088C45.7888 39.0355 44.8537 39.1989 43.7884 39.1989C42.4531 39.1989 41.2552 38.9124 40.1946 38.3395C39.1387 37.7666 38.303 36.9238 37.6875 35.8111C37.0767 34.6984 36.7713 33.3371 36.7713 31.7273C36.7713 30.108 37.0838 28.7443 37.7088 27.6364C38.3338 26.5237 39.1766 25.6832 40.2372 25.1151C41.2978 24.5421 42.4815 24.2557 43.7884 24.2557C44.7069 24.2557 45.5521 24.3812 46.3239 24.6321C47.0956 24.883 47.7727 25.25 48.3551 25.733C48.9375 26.2112 49.4063 26.8007 49.7614 27.5014C50.1165 28.2022 50.3319 29.0047 50.4077 29.9091ZM53.1992 39V24.4545H57.1481V30.1364H62.3754V24.4545H66.3242V39H62.3754V33.3182H57.1481V39H53.1992ZM73.1481 24.4545V39H69.1992V24.4545H73.1481ZM88.6048 24.4545V39H85.3093L80.0536 31.358H79.9684V39H76.0195V24.4545H79.3718L84.5423 32.0682H84.6559V24.4545H88.6048ZM91.4727 39V24.4545H101.956V27.6364H95.4215V30.1364H101.416V33.3182H95.4215V35.8182H101.927V39H91.4727Z" fill="url(#paint0_linear_8_119)"/>
<defs>
<linearGradient id="paint0_linear_8_119" x1="51.5" y1="-4" x2="51.5" y2="44" gradientUnits="userSpaceOnUse">
<stop stop-color="#00FFF0"/>
<stop offset="1" stop-color="#5D43FD"/>
</linearGradient>
</defs>
</svg>
